/* XPM */
static char * collectible_xpm[] = {
"16 16 7 1",
" 	c #3B7D4F",
".	c #63AB3F",
"+	c #4F1D4C",
"@	c #E64539",
"#	c #DFE0E8",
"$	c #AD2F45",
"%	c #2C354D",
"                ",
"                ",
"  .    ++     . ",
"       ++     ..",
".    . ++      .",
"     .+@@+      ",
"      +##+.     ",
"      +##+      ",
"    ++@@@@++    ",
".  +@+#@@#+@+   ",
"   +@+####+@+   ",
"   +$$@##@$$+   ",
"   %++$$$$++%   ",
"    %%++++%% .  ",
"           ...  ",
"           ..   "};
