/* XPM */
static char * exit_xpm[] = {
"16 16 5 1",
" 	c #3B7D4F",
".	c #63AB3F",
"+	c #3B2027",
"@	c #7D3833",
"#	c #E4E41D",
"                ",
"                ",
"  .   ++++    . ",
"    ++@@@@++  ..",
".  +@@++++@@+  .",
"   +@+####+@+   ",
"  +@++#+@+@+@+  ",
"  +@+@###@++@+  ",
"  +@++#+@+@+@+  ",
".  +@+####+@+   ",
"   +@@++++@@+   ",
"    ++@@@@++    ",
"      ++++      ",
"     .       .  ",
"           ...  ",
"           ..   "};
