/* XPM */
static char * player_xpm[] = {
"16 16 10 1",
" 	c #3B7D4F",
".	c #262B44",
"+	c #63AB3F",
"@	c #181425",
"#	c #E4A672",
"$	c #B86F50",
"%	c #FFFFFF",
"&	c #315D49",
"*	c #0095E9",
"=	c #4A7C42",
"                ",
"     ......     ",
"  + ........  + ",
"    @......@  ++",
"+   @@....@@   +",
"    @#@@@@#@    ",
"    @######@    ",
"    @#@##@#@    ",
"    ########    ",
"+   #$####$#    ",
"    #$%%%%$#    ",
"     &****&     ",
"    &&@&&@&&    ",
"    &=&&&&&& +  ",
"     &&&&&&+++  ",
"           ++   "};
