/* XPM */
static char * wall_xpm[] = {
"16 16 5 1",
" 	c #3B7D4F",
".	c #2C354D",
"+	c #C8D45D",
"@	c #2F5753",
"#	c #63AB3F",
"      ....      ",
"   ...++++...   ",
"  .++@####@++.# ",
" .+## @@@@ ##+.#",
". @##@####@##@ .",
". #@@@    @@@# .",
" .### @@@@ ###. ",
". @  @####@  @ .",
". #@@@    @@@# .",
"#.### @@@@ ###. ",
"  .  @ ## @  .  ",
" . @@@    @@@ . ",
"..    @@@@    ..",
"...  @    @  ...",
"......    ......",
" .............. "};
